<?xml version="1.0" encoding="utf-8"?>
<!-- Generator: Adobe Illustrator 21.0.0, SVG Export Plug-In . SVG Version: 6.00 Build 0)  -->
<svg version="1.1" id="Livello_1" xmlns="http://www.w3.org/2000/svg" xmlns:xlink="http://www.w3.org/1999/xlink" x="0px" y="0px"
	 viewBox="0 0 269.7 263.2" style="enable-background:new 0 0 269.7 263.2;" xml:space="preserve">
<style type="text/css">
	.st0{fill:#BC0000;}
</style>
<title>Risorsa 1</title>
<g id="Livello_2">
	<g id="Livello_1-2">
		<path class="st0" d="M49.9,13.4c275.7-41.9,216.7,313.5,15.2,185.1c2.5-3.4,0.9-1.6,3.5-5.1l-11.3-10.9c-1.7,0.9-3.4,1.9-5,3
			c-2.3-2.4-6.2-5.4-8.4-8.2l-13.3,11c1.6,2.2,6.2,6.8,7.9,8.8c-9,7.5-31.5,27.1-34.7,31.8c-13.9,17.3,12.2,39.6,25.1,25.4
			c5.1-4,18.8-25.4,27.8-38.6c23.2,24.4,54.7,41.4,97.2,40.6c9.5-0.2,65.1-2.4,100.7-62.1c26-43.7,18.5-109.3-28.1-154.5
			C176.2-9.8,100.4-6,49.9,13.4z"/>
		<path class="st0" d="M114.5,89.4l34.9-35l-11.5-10.8l-45.7-3.2l-65.4,61.1L63.6,138L95,108.7c47.9,49.8,138,144.3,145.3,152.5
			s29.5-11.2,22.1-19.7S147.6,118.2,114.5,89.4z"/>
	</g>
</g>
</svg>
