<?xml version="1.0" encoding="UTF-8" standalone="no"?>
<!-- Created with Inkscape (http://www.inkscape.org/) -->

<svg
   width="210mm"
   height="210mm"
   viewBox="0 0 209.99999 210"
   version="1.1"
   id="svg298"
   inkscape:version="1.2.2 (b0a8486541, 2022-12-01)"
   sodipodi:docname="esp.svg"
   xmlns:inkscape="http://www.inkscape.org/namespaces/inkscape"
   xmlns:sodipodi="http://sodipodi.sourceforge.net/DTD/sodipodi-0.dtd"
   xmlns="http://www.w3.org/2000/svg"
   xmlns:svg="http://www.w3.org/2000/svg">
  <sodipodi:namedview
     id="namedview300"
     pagecolor="#ffffff"
     bordercolor="#111111"
     borderopacity="1"
     inkscape:showpageshadow="0"
     inkscape:pageopacity="0"
     inkscape:pagecheckerboard="1"
     inkscape:deskcolor="#d1d1d1"
     inkscape:document-units="mm"
     showgrid="false"
     inkscape:zoom="0.79998597"
     inkscape:cx="412.50723"
     inkscape:cy="711.26247"
     inkscape:window-width="1080"
     inkscape:window-height="1847"
     inkscape:window-x="0"
     inkscape:window-y="0"
     inkscape:window-maximized="1"
     inkscape:current-layer="layer1" />
  <defs
     id="defs295" />
  <g
     inkscape:label="Layer 1"
     inkscape:groupmode="layer"
     id="layer1">
    <path
       class="cls-1"
       d="m 75.997198,149.05618 a 12.23279,12.23279 0 1 1 -12.23279,-12.23279 12.23279,12.23279 0 0 1 12.23279,12.23279"
       id="path84"
       style="fill:#e7352c;stroke-width:8.2654" />
    <path
       class="cls-1"
       d="M 182.7035,136.32746 A 126.79122,126.79122 0 0 0 75.253312,28.87728 80.422329,80.422329 0 0 0 57.482705,41.688648 v 11.81952 A 100.67256,100.67256 0 0 1 158.07261,154.01541 h 11.81952 a 84.720337,84.720337 0 0 0 12.81137,-17.68795"
       id="path86"
       style="fill:#e7352c;stroke-width:8.2654" />
    <path
       class="cls-1"
       d="M 192.29136,99.215823 A 79.513135,79.513135 0 0 0 112.36495,19.702688 c -2.81023,0 -5.53781,0 -8.2654,0.41327 l -1.81838,5.289855 a 136.79235,136.79235 0 0 1 83.81114,83.728487 l 5.28986,-1.90104 c 0,-2.64493 0.49592,-5.28986 0.49592,-8.265397"
       id="path88"
       style="fill:#e7352c;stroke-width:8.2654" />
    <path
       class="cls-1"
       d="M 113.27415,193.27606 A 94.556161,94.556161 0 0 1 18.717985,99.133173 93.894929,93.894929 0 0 1 46.407071,32.266094 l 5.372509,5.041893 a 87.28261,87.28261 0 0 0 0,123.980983 87.28261,87.28261 0 0 0 123.98098,0 l 5.0419,5.04189 a 93.812275,93.812275 0 0 1 -67.52831,26.9452"
       id="path90"
       style="fill:#e7352c;stroke-width:8.2654" />
    <path
       class="cls-1"
       d="M 112.19964,159.47058 A 54.964901,54.964901 0 0 0 90.626954,110.62207 53.807746,53.807746 0 0 0 62.937868,99.381133 a 5.0418932,5.0418932 0 0 1 -4.380661,-5.28986 4.8765852,4.8765852 0 0 1 5.372509,-4.46331 64.88338,64.88338 0 0 1 57.857794,70.917117 56.617981,56.617981 0 0 1 -2.14901,11.15829 l 14.3818,4.05004 a 79.843751,79.843751 0 0 0 12.3981,-4.71127 87.943842,87.943842 0 0 0 1.57042,-16.94407 90.919386,90.919386 0 0 0 -77.116169,-89.76223 40.00453,40.00453 0 0 0 -14.464448,0 31.491169,31.491169 0 0 0 -15.621603,9.670513 30.912591,30.912591 0 0 0 13.803215,49.592397 71.578353,71.578353 0 0 0 7.769475,1.40511 v 0 a 29.011549,29.011549 0 0 1 24.134964,28.59828 28.680933,28.680933 0 0 1 -4.628623,15.62161 l 9.918479,6.36435 a 73.644702,73.644702 0 0 0 14.87772,2.47962 54.386323,54.386323 0 0 0 5.45516,-19.01041"
       id="path92"
       style="fill:#e7352c;stroke-width:8.2654" />
  </g>
</svg>
